<?xml version="1.0" encoding="utf-8"?>
<!-- Generator: Adobe Illustrator 26.3.1, SVG Export Plug-In . SVG Version: 6.00 Build 0)  -->
<svg version="1.1" id="Layer_1" xmlns="http://www.w3.org/2000/svg" xmlns:xlink="http://www.w3.org/1999/xlink" x="0px" y="0px"
	 viewBox="0 0 612 792" style="enable-background:new 0 0 612 792;" xml:space="preserve">
<style type="text/css">
	.st0{fill:#D8D0D0;}
	.st1{fill:none;stroke:#C3B430;stroke-width:17;stroke-miterlimit:10;}
	.st2{fill:none;stroke:#3F371A;stroke-width:13;stroke-miterlimit:10;}
	.st3{fill:none;stroke:#1F264D;stroke-width:16;stroke-miterlimit:10;}
	.st4{fill:#FFFFFF;}
	.st5{fill:#ECECEC;}
	.st6{fill:#020202;}
	.st7{fill:#040404;}
	.st8{fill:none;stroke:#DBC752;stroke-width:9.9997;stroke-miterlimit:9.9996;}
	.st9{fill:none;stroke:#C3B430;stroke-width:16.9992;stroke-miterlimit:9.9996;}
	.st10{fill:none;stroke:#D3C263;stroke-width:7.9997;stroke-miterlimit:9.9996;}
	.st11{fill:none;stroke:#E2D79A;stroke-width:5;stroke-miterlimit:9.9999;}
	.st12{fill:#8EA0CC;}
	.st13{font-family:'Nexa-Heavy';}
	.st14{font-size:42px;}
	.st15{fill:#1F264D;}
	.st16{fill:#3F371A;}
	.st17{fill:none;stroke:#ECECEC;stroke-width:9.9997;stroke-miterlimit:9.9996;}
	.st18{fill:none;stroke:#ECECEC;stroke-width:16.9992;stroke-miterlimit:9.9996;}
	.st19{fill:none;stroke:#ECECEC;stroke-width:7.9997;stroke-miterlimit:9.9996;}
	.st20{fill:none;stroke:#ECECEC;stroke-width:5;stroke-miterlimit:9.9999;}
</style>
<rect x="-16.5" y="22" class="st0" width="764.9" height="457.6"/>
<path class="st1" d="M-263.9,328.2c22.3,18.2,44.6,36.3,67,54.5c-20.2,24.8-40.3,49.6-60.5,74.3"/>
<path class="st2" d="M-201.1,328.2c22.3,18.2,44.6,36.3,67,54.5c-20.2,24.8-40.3,49.6-60.5,74.3"/>
<path class="st3" d="M-322,335c22.3,18.2,44.6,36.3,67,54.5c-20.2,24.8-40.3,49.6-60.5,74.3"/>
<g>
	<path class="st4" d="M143.5,120.4c-3.7,0-7.3,0-11,0c-4.9-0.1-7.6-2.7-7.7-7.6c-0.1-7.4-0.1-14.8,0-22.2c0-4.6,2.8-7.5,7.4-7.5
		c7.5-0.1,15-0.1,22.6,0c4.4,0.1,7.3,2.9,7.4,7.3c0.1,7.6,0.1,15.3,0,22.9c-0.1,4.3-3,7.1-7.4,7.2
		C151,120.5,147.3,120.4,143.5,120.4z"/>
	<path class="st4" d="M100.5,120.4c-3.7,0-7.3,0-11,0c-4.8-0.1-7.7-2.8-7.8-7.5c-0.1-7.4-0.1-14.8,0-22.2c0-4.7,2.9-7.5,7.7-7.6
		c7.3-0.1,14.6-0.1,21.9,0c5,0,7.7,2.8,7.7,7.9c0,7.2,0,14.4,0,21.6c0,5.3-2.7,7.8-8,7.9C107.6,120.5,104.1,120.4,100.5,120.4z"/>
	<path class="st4" d="M143.6,126.1c3.7,0,7.3-0.1,11,0c4.8,0.1,7.7,2.8,7.7,7.6c0.1,7.4,0.1,14.8,0,22.2c-0.1,4.6-2.8,7.5-7.4,7.5
		c-7.5,0.1-15,0.1-22.6,0c-4.6-0.1-7.3-2.9-7.4-7.6c-0.1-7.4-0.1-14.8,0-22.2c0-4.8,2.8-7.5,7.7-7.5
		C136.3,126.1,139.9,126.1,143.6,126.1z"/>
	<path class="st4" d="M100.6,126.1c3.8,0,7.5-0.1,11.3,0c4.4,0.1,7.2,2.9,7.3,7.3c0.1,7.5,0.1,15,0,22.6c0,4.6-2.8,7.4-7.5,7.5
		c-7.5,0.1-15,0.1-22.6,0c-4.4-0.1-7.3-2.9-7.3-7.3c-0.1-7.6-0.1-15.3,0-22.9c0.1-4.2,3-7,7.2-7.1C92.9,126,96.7,126.1,100.6,126.1z
		"/>
</g>
<g>
	<path class="st4" d="M356.2,167.1c-8.5-1.3-16.9-2.3-25.2-4.1c-5.6-1.2-6.6-2.7-6.2-8.4c0.4-5.6,0.7-11.4,2.5-16.7
		c2.3-7.1,7.9-11.9,14.9-14.6c1.4-0.5,3.7-0.4,5,0.4c6,3.6,11.7,3.6,17.7,0c1.3-0.8,3.6-1,5-0.4c10.6,4.5,16.4,12.6,17.4,24.1
		c0.2,2.4,0.1,4.8,0.1,7.2c0,5.8-0.5,7.2-6.2,8.4C373,164.8,364.7,165.8,356.2,167.1z"/>
	<path class="st4" d="M389.4,158.4c1.3-13.9-1-25.4-11.9-33.5c3.8-4.6,7.2-5.3,11.8-3c4.5,2.3,8.9,1.8,13.3-0.6c1.4-0.7,3.6-1,5-0.4
		c9,3.9,13.8,10.9,14.7,20.6c0.1,1.2,0,2.4,0.1,3.6c0,8.3-0.5,9.4-8.7,10.8C406,157.1,398.2,157.5,389.4,158.4z"/>
	<path class="st4" d="M371.4,107.5c0,11.5-9.5,19.8-19.3,16.8c-6.7-2-11.3-8.8-11.3-16.6s4.4-14.7,10.9-16.9
		C361.6,87.5,371.4,95.8,371.4,107.5z"/>
	<path class="st4" d="M382.3,106.9c0.1-8.3,5.8-14.7,13-14.7c7.4,0,13.4,6.6,13.4,14.9s-5.9,14.9-13.3,14.9
		C387.8,121.9,382.2,115.4,382.3,106.9z"/>
</g>
<g>
	<path class="st5" d="M541.2,137.1c-11.7,0-23.3,0-35.1,0c0,8.5,0,17,0,25.5c-9.5,0-18.8,0-28.4,0c3.6-2.4,5.4-5.7,4.7-9.8
		c-0.7-4.2-3.5-6.6-7.6-7.7c0.1-3.1,1.2-5.7,3.7-7.4c14.1-9.6,29.3-13.2,46.1-8.6c5.5,1.5,10.8,3.7,15.5,6.9
		c0.4,0.3,0.8,0.5,1.1,0.8C541.3,136.9,541.3,137,541.2,137.1z"/>
	<path class="st5" d="M510.5,122.6c-10-0.1-17.9-8-17.8-17.9c0.1-9.8,8.1-17.8,17.9-17.7c10,0.1,17.8,8.1,17.7,18.1
		C528.3,114.7,520.2,122.6,510.5,122.6z"/>
	<path class="st5" d="M550.1,140.5c0,10.2,0,20.2,0,30.4c-0.5,0-1,0-1.4,0c-4.3,0-8.6,0-12.8,0c-0.7,0-1.1,0.1-1.5,0.8
		c-0.2,0.5-1,0.9-1.5,0.9c-2,0.1-3.9,0.1-5.9,0c-0.6,0-1.3-0.5-1.6-1c-0.4-0.7-0.8-0.8-1.4-0.8c-4.3,0-8.6,0-12.8,0
		c-0.5,0-0.9,0-1.5,0c0-10.2,0-20.3,0-30.4C523,140.5,536.5,140.5,550.1,140.5z M528.5,167.2c0-7.8,0-15.5,0-23.2
		c-5.2,0-10.2,0-15.3,0c0,7.8,0,15.5,0,23.2C518.3,167.2,523.4,167.2,528.5,167.2z M546.4,167.2c0-7.8,0-15.5,0-23.2
		c-5.2,0-10.3,0-15.4,0c0,7.8,0,15.5,0,23.2C536.2,167.2,541.3,167.2,546.4,167.2z"/>
	<path class="st5" d="M469.4,147.7c-1.3-4-2.6-7.9-3.9-11.8c-1.9-5.8-3.9-11.6-5.8-17.4c0-0.1-0.1-0.2-0.1-0.2
		c-0.3-0.8-0.6-1.7,0.5-2.1s1.4,0.5,1.6,1.3c1.6,4.9,3.3,9.8,4.9,14.7c1.6,4.7,3.1,9.4,4.7,14.1c0.2,0.7,0.6,0.9,1.3,0.8
		c4-0.1,7.3,2.4,7.8,6c0.5,3.8-1.9,7.3-5.8,8.3c-0.7,0.2-1.3,0.3-2,0.4c-2.8,0.5-4.3-0.2-5.2-2.9c-0.7-2-1.2-4.1-1.5-6.2
		c-0.4-2.6,0.5-3.9,3-4.8C468.9,148,469.1,147.9,469.4,147.7z"/>
	<path d="M528.5,167.2c-5.1,0-10.2,0-15.3,0c0-7.7,0-15.4,0-23.2c5.1,0,10.2,0,15.3,0C528.5,151.7,528.5,159.4,528.5,167.2z"/>
	<path d="M546.4,167.2c-5.1,0-10.2,0-15.4,0c0-7.7,0-15.4,0-23.2c5.1,0,10.2,0,15.4,0C546.4,151.7,546.4,159.4,546.4,167.2z
		 M534.6,150c0,0.6,0,1.1,0,1.7c2.8,0,5.5,0,8.2,0c0-0.6,0-1.1,0-1.7C540.1,150,537.4,150,534.6,150z M534.6,155.2
		c2.9,0,5.6,0,8.2,0c0-0.6,0-1.1,0-1.6c-2.8,0-5.5,0-8.2,0C534.6,154.2,534.6,154.7,534.6,155.2z M534.6,158.9c2,0,3.8,0,5.6,0
		c0-0.6,0-1.1,0-1.7c-1.9,0-3.7,0-5.6,0C534.6,157.8,534.6,158.3,534.6,158.9z"/>
	<path class="st4" d="M534.6,150c2.8,0,5.5,0,8.2,0c0,0.6,0,1.1,0,1.7c-2.7,0-5.4,0-8.2,0C534.6,151.2,534.6,150.7,534.6,150z"/>
	<path class="st4" d="M534.6,155.2c0-0.5,0-1,0-1.6c2.7,0,5.4,0,8.2,0c0,0.5,0,1,0,1.6C540.2,155.2,537.5,155.2,534.6,155.2z"/>
	<path class="st4" d="M534.6,158.9c0-0.6,0-1.1,0-1.7c1.9,0,3.7,0,5.6,0c0,0.6,0,1.1,0,1.7C538.4,158.9,536.6,158.9,534.6,158.9z"/>
</g>
<g>
	<path class="st6" d="M219,275.1c0,27.5-22.4,49.8-50.2,49.8c-26.6,0-49.7-21.4-49.6-49.8c0-29,23.7-49.9,49.9-49.9
		C196.6,225.2,219,247.7,219,275.1z M215.1,274.5c-0.1-25-20.8-45.9-46.8-45.4c-25.2,0.4-45.4,21-45.2,46.1
		c0.2,25.9,21,46.6,47.7,45.8C193.8,320.4,215.4,301.3,215.1,274.5z"/>
	<path class="st5" d="M215.1,274.5c0.3,26.8-21.3,45.9-44.2,46.5c-26.7,0.8-47.5-19.9-47.7-45.8c-0.2-25.1,20-45.7,45.2-46.1
		C194.3,228.6,215,249.5,215.1,274.5z M168.9,282.1c-2.9,0-6.2,0.2-9.5,0.6c-4.1,0.6-8,2-11.5,4.4c-4.8,3.3-8,7.9-10.2,13.3
		c-0.4,0.9-0.1,1.7,0.5,2.4c3.7,4,7.9,7.3,12.8,9.7c4.6,2.3,9.5,3.7,14.6,3.9c2.9,0.1,5.8-0.1,8.8-0.5c5.6-0.8,10.9-2.4,15.8-5.3
		c3.6-2.1,6.8-4.7,9.6-7.8c0.7-0.8,0.9-1.7,0.5-2.7c-0.4-0.8-0.7-1.6-1-2.3c-3.7-7.7-9.6-12.7-18-14.6
		C177.3,282.3,173.3,282,168.9,282.1z M169.1,278.1c9.9,0,18-8,18-18c0-9.9-8-18.1-17.8-18.1c-10.1,0-18.2,7.9-18.2,18
		C151.1,270.3,158.9,278.1,169.1,278.1z"/>
	<path class="st7" d="M168.9,282.1c4.4,0,8.4,0.2,12.4,1.1c8.4,1.9,14.3,6.9,18,14.6c0.4,0.8,0.7,1.6,1,2.3c0.5,1,0.2,1.9-0.5,2.7
		c-2.7,3.1-5.9,5.8-9.6,7.8c-4.9,2.8-10.2,4.5-15.8,5.3c-2.9,0.4-5.8,0.6-8.8,0.5c-5.2-0.2-10-1.6-14.6-3.9
		c-4.9-2.4-9.1-5.8-12.8-9.7c-0.7-0.7-0.9-1.5-0.5-2.4c2.2-5.4,5.4-10,10.2-13.3c3.5-2.4,7.3-3.8,11.5-4.4
		C162.7,282.2,166,282.1,168.9,282.1z"/>
	<path class="st7" d="M169.1,278.1c-10.2,0-18-7.9-18-18.1c0-10.1,8.1-18,18.2-18c9.8,0,17.9,8.2,17.8,18.1
		C187.1,270.1,179,278.2,169.1,278.1z"/>
</g>
<g>
	<path class="st4" d="M264.5,151.3c1.8,0,3.6,0,5.3,0c3.4,0,6,2.5,6,5.7s-2.6,5.7-6,5.7c-24.6,0-49.2,0-73.8,0
		c-3.4,0-5.9-2.5-5.9-5.7s2.6-5.7,6-5.7c1.8,0,3.6,0,5.4,0c0-18.1,0-36.2,0-54.3c-1.3,0-2.6,0-3.9,0c-1,0-1.6-0.4-1.8-1.2
		c-0.2-0.7,0.2-1.3,1.2-1.7c11.7-5.1,23.3-10.3,35-15.4c0.7-0.3,1.2-0.3,1.9,0c11.6,5.1,23.3,10.3,34.9,15.4c1,0.4,1.4,1.1,1.2,1.8
		c-0.2,0.8-0.8,1.1-1.9,1.1c-1.2,0-2.4,0-3.7,0C264.5,115,264.5,133.1,264.5,151.3z M204.5,97c0,13.4,0,26.7,0,40c1.4,0,2.7,0,4,0
		c2.7,0,4.5,1.8,4.5,4.6c0,2.9,0,5.8,0,8.8c0,0.3,0,0.6,0,0.9c3.4,0,6.7,0,10,0c0-0.4,0-0.7,0-1c0-3.8,0-7.7,0-11.5
		c0-2.8,1.8-4.6,4.6-4.6c3.6,0,7.2,0,10.8,0c2.9,0,4.6,1.8,4.6,4.6c0,3.8,0,7.7,0,11.5c0,0.3,0,0.6,0,0.9c3.4,0,6.7,0,10,0
		c0-3.2,0-6.3,0-9.4c0-0.4,0-0.8,0.1-1.2c0.4-2.1,2.1-3.5,4.2-3.5c1.4,0,2.8,0,4.2,0c0-13.4,0-26.7,0-40C242.5,97,223.6,97,204.5,97
		z M233.1,154.1c-12.2,0-24.4,0-36.5,0c-2.2,0-3.6,1.1-3.6,2.9c0,1.8,1.3,2.9,3.6,2.9c24.3,0,48.6,0,72.9,0c0.3,0,0.6,0,0.9,0
		c1.4-0.1,2.5-1.2,2.7-2.6c0.1-1.3-0.7-2.6-2-3c-0.4-0.1-0.9-0.2-1.4-0.2C257.5,154.1,245.3,154.1,233.1,154.1z M261.8,94
		c-0.4-0.2-0.6-0.3-0.8-0.4c-9.1-4-18.2-8-27.3-12c-0.4-0.2-0.9-0.2-1.3,0c-9.1,4-18.2,8-27.4,12c-0.2,0.1-0.4,0.2-0.7,0.4
		C223.5,94,242.6,94,261.8,94z M240.2,151.2c0-4.3,0-8.5,0-12.8c0-1-0.6-1.5-1.7-1.5c-3.6,0-7.1,0-10.7,0c-1.4,0-1.9,0.5-1.9,1.9
		c0,3.9,0,7.7,0,11.6c0,0.3,0,0.5,0.1,0.8C230.7,151.2,235.4,151.2,240.2,151.2z M204.5,139.8c0,3.9,0,7.6,0,11.4c1.9,0,3.7,0,5.6,0
		c0-3.4,0-6.8,0-10.1c0-0.8-0.6-1.2-1.4-1.3C207.4,139.8,206,139.8,204.5,139.8z M261.6,139.8c-1.4,0-2.6,0-3.9,0s-1.8,0.5-1.8,1.8
		c0,3,0,6,0,8.9c0,0.2,0,0.5,0.1,0.7c1.9,0,3.8,0,5.6,0C261.6,147.4,261.6,143.7,261.6,139.8z"/>
	<path class="st4" d="M204.5,97c19.1,0,38,0,57.1,0c0,13.3,0,26.6,0,40c-1.4,0-2.8,0-4.2,0c-2.1,0-3.8,1.5-4.2,3.5
		c-0.1,0.4-0.1,0.8-0.1,1.2c0,3.1,0,6.3,0,9.4c-3.3,0-6.6,0-10,0c0-0.3,0-0.6,0-0.9c0-3.8,0-7.7,0-11.5c0-2.9-1.8-4.6-4.6-4.6
		c-3.6,0-7.2,0-10.8,0c-2.8,0-4.6,1.8-4.6,4.6c0,3.8,0,7.7,0,11.5c0,0.3,0,0.6,0,1c-3.4,0-6.6,0-10,0c0-0.3,0-0.6,0-0.9
		c0-2.9,0-5.8,0-8.8c0-2.7-1.8-4.5-4.5-4.6c-1.3,0-2.6,0-4,0C204.5,123.6,204.5,110.3,204.5,97z M214.4,99.8c-1.4,0-2.9,0-4.3,0
		c-1.6,0-2.8,1.2-2.9,2.8c0,2.9,0,5.7,0,8.6c0,1.7,1.2,2.9,2.9,2.9c2.8,0,5.7,0,8.5,0c1.7,0,2.9-1.2,2.9-2.9c0-2.8,0-5.7,0-8.5
		c0-1.7-1.2-2.9-2.9-2.9C217.2,99.8,215.8,99.8,214.4,99.8z M233.1,99.8c-1.4,0-2.9,0-4.3,0c-1.7,0-2.9,1.2-2.9,2.9
		c0,2.8,0,5.7,0,8.5c0,1.7,1.2,2.9,2.9,2.9c2.8,0,5.6,0,8.4,0c1.7,0,2.9-1.2,2.9-2.9c0-2.8,0-5.6,0-8.4c0-1.8-1.2-3-3-3
		C235.8,99.8,234.4,99.8,233.1,99.8z M251.6,99.8c-1.4,0-2.7,0-4.1,0c-1.8,0-3,1.2-3,3c0,2.7,0,5.5,0,8.2c0,1.8,1.2,3,3,3
		c2.8,0,5.5,0,8.3,0c1.8,0,3-1.2,3-3c0-2.8,0-5.5,0-8.3c0-1.8-1.2-3-3-3C254.3,99.8,253,99.8,251.6,99.8z M207.3,124
		c0,1.4,0,2.8,0,4.2c0,0.1,0,0.1,0,0.2c0.1,1.6,1.2,2.8,2.8,2.9c2.9,0,5.7,0,8.6,0c1.7,0,2.9-1.2,2.9-2.9c0-2.8,0-5.7,0-8.5
		c0-1.7-1.2-2.9-2.9-2.9c-2.8,0-5.7,0-8.5,0c-1.7,0-2.9,1.2-2.9,2.9C207.3,121.3,207.3,122.6,207.3,124z M240.2,124.1
		c0-1.4,0-2.7,0-4.1v-0.1c0-1.8-1.2-3-3-3c-2.8,0-5.5,0-8.3,0c-1.8,0-3,1.2-3,3c0,2.8,0,5.5,0,8.3c0,1.8,1.2,3,3,3
		c2.7,0,5.5,0,8.2,0c1.8,0,3-1.2,3-3C240.2,126.9,240.2,125.5,240.2,124.1z M251.7,117c-1.4,0-2.8,0-4.2,0c-1.8,0-3,1.2-3,3
		c0,2.8,0,5.6,0,8.4c0,1.7,1.2,2.9,2.9,2.9c2.8,0,5.6,0,8.4,0c1.8,0,3-1.2,3-3c0-2.8,0-5.5,0-8.3c0-1.8-1.2-3-3-3
		C254.4,116.9,253,117,251.7,117z"/>
	<path class="st4" d="M233.1,154.1c12.2,0,24.4,0,36.5,0c0.5,0,1,0,1.4,0.2c1.3,0.4,2.1,1.7,2,3c-0.2,1.4-1.3,2.5-2.7,2.6
		c-0.3,0-0.6,0-0.9,0c-24.3,0-48.6,0-72.9,0c-2.2,0-3.6-1.1-3.6-2.9c0-1.8,1.3-2.9,3.6-2.9C208.8,154.1,220.9,154.1,233.1,154.1z"/>
	<path class="st4" d="M261.8,94c-19.2,0-38.2,0-57.4,0c0.3-0.2,0.5-0.3,0.7-0.4c9.1-4,18.2-8,27.4-12c0.4-0.2,0.9-0.2,1.3,0
		c9.1,4,18.2,8,27.3,12C261.2,93.7,261.4,93.8,261.8,94z"/>
	<path class="st4" d="M214.4,99.8c1.4,0,2.8,0,4.2,0c1.7,0,2.9,1.2,2.9,2.9c0,2.8,0,5.7,0,8.5c0,1.7-1.2,2.9-2.9,2.9
		c-2.8,0-5.7,0-8.5,0c-1.7,0-2.9-1.2-2.9-2.9c0-2.9,0-5.7,0-8.6c0-1.6,1.2-2.8,2.9-2.8C211.6,99.8,213,99.8,214.4,99.8z
		 M218.7,111.2c0-2.9,0-5.7,0-8.5c-2.9,0-5.7,0-8.5,0c0,2.9,0,5.6,0,8.5C213,111.2,215.8,111.2,218.7,111.2z"/>
	<path class="st4" d="M233.1,99.8c1.4,0,2.7,0,4.1,0c1.8,0,3,1.2,3,3c0,2.8,0,5.6,0,8.4c0,1.7-1.2,2.9-2.9,2.9c-2.8,0-5.6,0-8.4,0
		c-1.7,0-2.9-1.2-2.9-2.9c0-2.8,0-5.7,0-8.5c0-1.7,1.2-2.9,2.9-2.9C230.2,99.8,231.6,99.8,233.1,99.8z M237.3,102.7
		c-2.9,0-5.7,0-8.5,0c0,2.9,0,5.7,0,8.5c2.9,0,5.7,0,8.5,0C237.3,108.3,237.3,105.5,237.3,102.7z"/>
	<path class="st4" d="M251.6,99.8c1.4,0,2.7,0,4.1,0c1.8,0,3,1.2,3,3c0,2.8,0,5.5,0,8.3c0,1.8-1.2,3-3,3c-2.8,0-5.5,0-8.3,0
		c-1.8,0-3-1.2-3-3c0-2.7,0-5.5,0-8.2c0-1.8,1.2-3,3-3C248.9,99.8,250.2,99.8,251.6,99.8z M247.4,111.2c2.9,0,5.7,0,8.5,0
		c0-2.9,0-5.7,0-8.5c-2.9,0-5.6,0-8.5,0C247.4,105.5,247.4,108.3,247.4,111.2z"/>
	<path class="st4" d="M207.3,124c0-1.4,0-2.7,0-4.1c0-1.7,1.2-2.9,2.9-2.9c2.8,0,5.7,0,8.5,0c1.7,0,2.9,1.2,2.9,2.9
		c0,2.8,0,5.7,0,8.5c0,1.7-1.2,2.9-2.9,2.9c-2.9,0-5.7,0-8.6,0c-1.6,0-2.8-1.2-2.8-2.9c0-0.1,0-0.1,0-0.2
		C207.3,126.8,207.3,125.4,207.3,124z M218.7,128.4c0-2.9,0-5.7,0-8.5c-2.9,0-5.7,0-8.5,0c0,2.9,0,5.6,0,8.5
		C213,128.4,215.8,128.4,218.7,128.4z"/>
	<path class="st4" d="M240.2,124.1c0,1.4,0,2.7,0,4.1c0,1.8-1.2,3-3,3c-2.7,0-5.5,0-8.2,0c-1.8,0-3-1.2-3-3c0-2.8,0-5.5,0-8.3
		c0-1.8,1.2-3,3-3c2.8,0,5.5,0,8.3,0c1.8,0,3,1.2,3,3v0.1C240.2,121.4,240.2,122.8,240.2,124.1z M228.8,119.9c0,2.9,0,5.7,0,8.5
		c2.9,0,5.7,0,8.5,0c0-2.9,0-5.6,0-8.5C234.4,119.9,231.7,119.9,228.8,119.9z"/>
	<path class="st4" d="M251.7,117c1.4,0,2.7,0,4.1,0c1.8,0,3,1.2,3,3c0,2.8,0,5.5,0,8.3c0,1.8-1.2,3-3,3c-2.8,0-5.6,0-8.4,0
		c-1.7,0-2.9-1.2-2.9-2.9c0-2.8,0-5.6,0-8.4c0-1.8,1.2-2.9,3-3C248.9,116.9,250.3,117,251.7,117z M247.4,128.3c2.9,0,5.7,0,8.5,0
		c0-2.9,0-5.7,0-8.5c-2.9,0-5.6,0-8.5,0C247.4,122.7,247.4,125.5,247.4,128.3z"/>
</g>
<g>
	<g>
		
			<rect x="173.2" y="478.6" transform="matrix(0.7071 -0.7071 0.7071 0.7071 -304.5234 303.3059)" class="st8" width="81.3" height="81.3"/>
		
			<rect x="155.9" y="459.8" transform="matrix(0.7071 -0.7071 0.7071 0.7071 -303.4713 302.864)" class="st9" width="115.9" height="115.9"/>
		
			<rect x="191" y="496.4" transform="matrix(0.7071 -0.7071 0.7071 0.7071 -304.4855 303.2288)" class="st10" width="45.6" height="45.6"/>
		<polygon class="st11" points="196.2,519.3 213.8,501.2 231.5,519.3 213.8,537.3 		"/>
	</g>
	<text transform="matrix(1 0 0 1 44.2428 649.9374)" class="st12 st13 st14">Campus</text>
	<text transform="matrix(1 0 0 1 212.7428 649.9374)" class="st15 st13 st14"> </text>
	<text transform="matrix(1 0 0 1 222.5428 649.9374)" class="st16 st13 st14">Connect</text>
</g>
<g>
	
		<rect x="403.1" y="284.8" transform="matrix(0.7071 -0.7071 0.7071 0.7071 -100.1647 409.0952)" class="st17" width="81.3" height="81.3"/>
	
		<rect x="385.8" y="266" transform="matrix(0.7071 -0.7071 0.7071 0.7071 -99.1126 408.6534)" class="st18" width="115.9" height="115.9"/>
	
		<rect x="420.9" y="302.7" transform="matrix(0.7071 -0.7071 0.7071 0.7071 -100.2147 409.0889)" class="st19" width="45.6" height="45.6"/>
	<polygon class="st20" points="426.1,325.6 443.7,307.5 461.4,325.6 443.7,343.6 	"/>
	<text transform="matrix(1 0 0 1 274.1848 456.2104)" class="st5 st13 st14">Campus</text>
	<text transform="matrix(1 0 0 1 442.6847 456.2104)" class="st5 st13 st14"> </text>
	<text transform="matrix(1 0 0 1 452.4848 456.2104)" class="st5 st13 st14">Connect</text>
</g>
</svg>
